<?xml version="1.0" encoding="UTF-8" standalone="no"?>
<!-- Created with Inkscape (http://www.inkscape.org/) -->

<svg
   version="1.1"
   id="svg427"
   width="439.03787"
   height="367.11887"
   viewBox="0 0 439.03786 367.11886"
   sodipodi:docname="IBM OS2.svg"
   inkscape:version="1.2.2 (732a01da63, 2022-12-09)"
   xmlns:inkscape="http://www.inkscape.org/namespaces/inkscape"
   xmlns:sodipodi="http://sodipodi.sourceforge.net/DTD/sodipodi-0.dtd"
   xmlns="http://www.w3.org/2000/svg"
   xmlns:svg="http://www.w3.org/2000/svg">
  <defs
     id="defs431">
    <clipPath
       id="clipPath13138">
      <rect
         transform="rotate(-37)"
         x="-76.903999"
         y="397.82999"
         width="375"
         height="375"
         stop-color="#000000"
         id="rect130" />
    </clipPath>
    <filter
       id="filter35890"
       x="-0.03443229"
       y="-0.090825576"
       width="1.0688646"
       height="1.1816512"
       color-interpolation-filters="sRGB">
      <feGaussianBlur
         stdDeviation="6.0728516"
         id="feGaussianBlur136" />
    </filter>
    <clipPath
       id="clipPath644">
      <rect
         transform="rotate(-37)"
         x="-76.903999"
         y="397.82999"
         width="375"
         height="375"
         stop-color="#000000"
         id="rect642" />
    </clipPath>
    <filter
       id="filter35920"
       x="-0.13772916"
       y="-0.3284589"
       width="1.2754583"
       height="1.6569178"
       color-interpolation-filters="sRGB">
      <feGaussianBlur
         stdDeviation="24.291406"
         id="feGaussianBlur139" />
    </filter>
    <clipPath
       id="clipPath13138-7">
      <rect
         transform="rotate(-37)"
         x="-76.903999"
         y="397.82999"
         width="375"
         height="375"
         stop-color="#000000"
         id="rect133" />
    </clipPath>
  </defs>
  <sodipodi:namedview
     id="namedview429"
     pagecolor="#ffffff"
     bordercolor="#000000"
     borderopacity="0.25"
     inkscape:showpageshadow="2"
     inkscape:pageopacity="0.0"
     inkscape:pagecheckerboard="0"
     inkscape:deskcolor="#d1d1d1"
     showgrid="false"
     inkscape:zoom="0.76543687"
     inkscape:cx="54.870626"
     inkscape:cy="114.96703"
     inkscape:window-width="1920"
     inkscape:window-height="1046"
     inkscape:window-x="-11"
     inkscape:window-y="-11"
     inkscape:window-maximized="1"
     inkscape:current-layer="layer3" />
  <g
     inkscape:groupmode="layer"
     id="layer1"
     inkscape:label="Image 1"
     style="fill:#b1aea6;fill-opacity:1"
     transform="translate(-230.41665,-43.99113)">
    <path
       d="m 230.41665,163.40986 3.27311,4.42526 31.47473,-23.28014 -3.27313,-4.42525 z m 35.93411,-26.57851 3.27312,4.42526 44.8529,-33.17524 c 0,0 -7.85459,-1.03659 -13.92261,3.45158 z m 53.65168,-39.683209 3.27311,4.425259 27.13534,-20.070539 -4.88383,-3.233915 z m 46.58989,-34.460019 1.66244,5.61659 26.88901,-19.888325 -3.27314,-4.425257 z m -129.81025,109.327788 3.27311,4.42527 31.47472,-23.28015 -3.27312,-4.42525 z m 35.93845,-26.57266 3.26847,4.41898 50.05762,-37.02489 c 0,0 -3.10379,-2.97343 -4.87286,-3.23231 z m 53.65165,-39.68321 3.26849,4.41898 30.11037,-22.271003 -4.75917,-3.316406 z m 43.36855,-32.077344 1.77779,5.521554 29.99036,-22.182241 -3.26847,-4.418979 z m -117.54844,100.248674 3.27775,4.43151 13.63084,-10.08198 -3.27776,-4.43153 z m 35.93413,-26.57852 3.27776,4.43152 13.63083,-10.08198 -3.27775,-4.43152 z m 26.88899,-19.88832 3.27775,4.43152 13.63084,-10.08199 c 0,0 -0.86565,-2.98034 -2.4124,-5.07156 z m 26.76266,-19.79489 3.27776,4.43152 24.16662,-17.874734 -4.88843,-3.240178 z m 31.35472,-23.191367 1.66075,5.627529 24.28664,-17.9635 -3.27775,-4.431522 z m -114.57043,98.065407 3.27312,4.42525 13.63083,-10.082 -3.27311,-4.42524 z m 35.93412,-26.57851 3.27311,4.42525 34.81609,-25.75158 c 0,0 1.23298,-4.4248 0.56728,-7.26576 z m 53.65165,-39.68321 3.27313,4.42525 13.63081,-10.08199 -1.822,-2.46334 2.68738,1.82329 24.9688,-18.468072 -0.89349,-3.150115 1.822,2.463347 13.63083,-10.081983 -3.27311,-4.425256 -25.58782,18.92591 1.41439,4.752769 -4.13676,-2.739174 z m -83.22034,74.86777 3.27312,4.42525 13.63083,-10.08197 -3.27313,-4.42529 z m 35.93412,-26.5785 3.27311,4.42523 38.65646,-28.59209 c -2.51659,-1.46108 -7.11348,-1.58473 -7.11348,-1.58473 z m 53.65165,-39.68322 3.27311,4.42525 13.63084,-10.08198 -3.27312,-4.42526 z m 16.10688,-11.91337 4.92171,3.20588 18.72187,-13.84755 -1.70665,-5.583883 z m 24.28664,-17.963502 3.27311,4.425244 13.63083,-10.081985 -3.27311,-4.425255 z m -123.61387,104.744642 3.27313,4.42525 13.63083,-10.08199 -3.27313,-4.42523 z m 35.93411,-26.57852 3.27313,4.42527 13.63084,-10.08199 -3.27314,-4.42525 z m 26.88901,-19.88832 3.27311,4.42526 14.49619,-10.72204 c -1.54469,-2.08842 -4.13847,-3.7852 -4.13847,-3.7852 z m 26.76266,-19.79488 3.27311,4.42526 13.63084,-10.08199 -3.27312,-4.42525 z m 19.20191,-14.20261 4.87119,3.24325 12.55072,-9.28308 -1.66244,-5.6166 z m 21.19159,-15.67427 3.27313,4.42526 13.63084,-10.081988 -3.27312,-4.425257 z m -132.41262,111.25262 3.27775,4.43153 31.47473,-23.28015 -3.27777,-4.43152 z m 35.68777,-26.39629 3.27776,4.43149 48.45323,-35.83821 c 0.2692,-1.76895 -1.67336,-5.61818 -1.67336,-5.61818 z m 53.89801,-39.86542 3.27774,4.43151 22.4296,-16.58995 -3.27775,-4.43153 z m 31.10203,-23.0045 4.92005,3.21682 6.38589,-4.7233 -1.73654,-5.57147 z m 18.09024,-13.38036 3.27778,4.43152 22.67592,-16.772157 -3.27776,-4.431528 z m -132.408,111.25891 3.27313,4.42525 31.47474,-23.28014 -3.27314,-4.42527 z m 35.6878,-26.39631 3.26847,4.41896 34.2034,-25.2984 c 6.068,-4.48817 7.38101,-12.2958 7.38101,-12.2958 z m 53.89799,-39.86543 3.27311,4.42526 22.4296,-16.58996 -3.27311,-4.42525 z m 34.21606,-25.30775 4.84292,3.24475 0.27596,-0.19505 -1.66413,-5.60566 z m 14.97622,-11.0771 3.27312,4.42526 22.67594,-16.77216 -3.27314,-4.42526 z"
       fill="#1f70c1"
       id="path4"
       style="fill:#b1aea6;fill-opacity:1;stroke-width:0.201126" />
  </g>
  <g
     inkscape:groupmode="layer"
     id="layer2"
     inkscape:label="Image 2"
     transform="matrix(1.0782896,0,0,1.0782896,-234.74464,-53.722766)"
     style="display:inline">
    <g
       transform="matrix(0.61400268,0,0,0.61400268,193.11356,-17.099257)"
       id="g200">
      <rect
         transform="rotate(-37)"
         x="-76.903999"
         y="397.82999"
         width="375"
         height="375"
         stop-color="#000000"
         id="rect144" />
      <g
         clip-path="url(#clipPath13138)"
         filter="url(#filter35890)"
         id="g162">
        <path
           d="M 218.71,407.5 A 82.5,82.5 0 0 0 300.495,480 82.5,82.5 0 0 0 382.28,407.5 H 370.208 A 70.5,70.5 0 0 1 300.495,468 70.5,70.5 0 0 1 230.782,407.5 Z"
           fill="#ff0000"
           id="path146" />
        <path
           d="m 300.5,315 a 82.5,82.5 0 0 0 -81.785,72.5 h 12.072 A 70.5,70.5 0 0 1 300.5,327 a 70.5,70.5 0 0 1 69.762,60.5 h 12.105 A 82.5,82.5 0 0 0 300.5,315 Z"
           fill="#ff6600"
           id="path148" />
        <path
           d="m 435.62,391.57 -5.5156,9.5527 12.91,8.0156 c 9.3325,5.9692 14.986,16.281 14.988,27.359 0.004,17.949 -14.551,32.5 -32.5,32.5 -17.443,0 -31.634,-13.752 -32.424,-31 h -11.039 c 0.79223,23.328 19.942,42 43.463,42 24.024,0 43.502,-19.476 43.5,-43.5 -0.002,-15.09 -7.8285,-29.099 -20.674,-37.018 z"
           fill="#0000ff"
           id="path150" />
        <path
           d="m 427.5,318 c -20.711,0 -37.527,16.789 -37.5,37.5 0.0171,12.987 6.8053,25.026 17.871,31.824 l 5.2305,3.248 5.5274,-9.5762 -5.293,-3.2949 c -7.6214,-4.8195 -12.31,-13.184 -12.336,-22.201 -0.0414,-14.635 11.864,-26.5 26.5,-26.5 12.142,0 22.354,8.1762 25.488,19.316 l 9.7227,-5.6133 c -5.2366,-14.399 -19.002,-24.703 -35.211,-24.703 z"
           fill="#ff0000"
           id="path152" />
        <path
           d="m 548.73,468 -11.727,12 h 102 v -12 h -74.877 z"
           fill="#ff6600"
           stop-color="#000000"
           stroke-width="83.927"
           id="path154" />
        <path
           d="m 603,319.23 v 11.355 c 16.181,4.7499 28,19.698 28,37.416 -0.0223,10.021 -3.9012,19.649 -10.832,26.887 l -51.898,53.113 h 15.363 l 44.023,-45.127 c 9.1492,-9.3068 14.297,-21.822 14.344,-34.873 0,-23.833 -16.68,-43.758 -39,-48.771 z"
           fill="#0000ff"
           stop-color="#000000"
           stroke-width="83.927"
           id="path156" />
        <path
           d="m 583,318.82 c -23.316,4.2407 -41,24.636 -41,49.176 8.2e-4,0.33633 0.0374,0.665 0.0449,1 h 11.004 c -0.009,-0.3351 -0.0481,-0.66301 -0.0488,-1 0,-18.44 12.802,-33.879 30,-37.943 z"
           fill="#ff0000"
           stop-color="#000000"
           stroke-width="83.927"
           id="path158" />
        <path
           d="M 466,492 548,308"
           fill="none"
           stroke="#ff6600"
           stroke-width="10.5"
           id="path160" />
      </g>
      <g
         clip-path="url(#clipPath13138)"
         filter="url(#filter35920)"
         id="g180">
        <path
           d="M 218.71,407.5 A 82.5,82.5 0 0 0 300.495,480 82.5,82.5 0 0 0 382.28,407.5 H 370.208 A 70.5,70.5 0 0 1 300.495,468 70.5,70.5 0 0 1 230.782,407.5 Z"
           fill="#ff0000"
           id="path164" />
        <path
           d="m 300.5,315 a 82.5,82.5 0 0 0 -81.785,72.5 h 12.072 A 70.5,70.5 0 0 1 300.5,327 a 70.5,70.5 0 0 1 69.762,60.5 h 12.105 A 82.5,82.5 0 0 0 300.5,315 Z"
           fill="#ff6600"
           id="path166" />
        <path
           d="m 435.62,391.57 -5.5156,9.5527 12.91,8.0156 c 9.3325,5.9692 14.986,16.281 14.988,27.359 0.004,17.949 -14.551,32.5 -32.5,32.5 -17.443,0 -31.634,-13.752 -32.424,-31 h -11.039 c 0.79223,23.328 19.942,42 43.463,42 24.024,0 43.502,-19.476 43.5,-43.5 -0.002,-15.09 -7.8285,-29.099 -20.674,-37.018 z"
           fill="#0000ff"
           id="path168" />
        <path
           d="m 427.5,318 c -20.711,0 -37.527,16.789 -37.5,37.5 0.0171,12.987 6.8053,25.026 17.871,31.824 l 5.2305,3.248 5.5274,-9.5762 -5.293,-3.2949 c -7.6214,-4.8195 -12.31,-13.184 -12.336,-22.201 -0.0414,-14.635 11.864,-26.5 26.5,-26.5 12.142,0 22.354,8.1762 25.488,19.316 l 9.7227,-5.6133 c -5.2366,-14.399 -19.002,-24.703 -35.211,-24.703 z"
           fill="#ff0000"
           id="path170" />
        <path
           d="m 548.73,468 -11.727,12 h 102 v -12 h -74.877 z"
           fill="#ff6600"
           stop-color="#000000"
           stroke-width="83.927"
           id="path172" />
        <path
           d="m 603,319.23 v 11.355 c 16.181,4.7499 28,19.698 28,37.416 -0.0223,10.021 -3.9012,19.649 -10.832,26.887 l -51.898,53.113 h 15.363 l 44.023,-45.127 c 9.1492,-9.3068 14.297,-21.822 14.344,-34.873 0,-23.833 -16.68,-43.758 -39,-48.771 z"
           fill="#0000ff"
           stop-color="#000000"
           stroke-width="83.927"
           id="path174" />
        <path
           d="m 583,318.82 c -23.316,4.2407 -41,24.636 -41,49.176 8.2e-4,0.33633 0.0374,0.665 0.0449,1 h 11.004 c -0.009,-0.3351 -0.0481,-0.66301 -0.0488,-1 0,-18.44 12.802,-33.879 30,-37.943 z"
           fill="#ff0000"
           stop-color="#000000"
           stroke-width="83.927"
           id="path176" />
        <path
           d="M 466,492 548,308"
           fill="none"
           stroke="#ff6600"
           stroke-width="10.5"
           id="path178" />
      </g>
      <g
         clip-path="url(#clipPath13138-7)"
         id="g198">
        <path
           d="M 218.71,407.5 A 82.5,82.5 0 0 0 300.495,480 82.5,82.5 0 0 0 382.28,407.5 H 370.208 A 70.5,70.5 0 0 1 300.495,468 70.5,70.5 0 0 1 230.782,407.5 Z"
           fill="#da291c"
           id="path182" />
        <path
           d="m 300.5,315 a 82.5,82.5 0 0 0 -81.785,72.5 h 12.072 A 70.5,70.5 0 0 1 300.5,327 a 70.5,70.5 0 0 1 69.762,60.5 h 12.105 A 82.5,82.5 0 0 0 300.5,315 Z"
           fill="#fedd00"
           id="path184" />
        <path
           d="m 435.62,391.57 -5.5156,9.5527 12.91,8.0156 c 9.3325,5.9692 14.986,16.281 14.988,27.359 0.004,17.949 -14.551,32.5 -32.5,32.5 -17.443,0 -31.634,-13.752 -32.424,-31 h -11.039 c 0.79223,23.328 19.942,42 43.463,42 24.024,0 43.502,-19.476 43.5,-43.5 -0.002,-15.09 -7.8285,-29.099 -20.674,-37.018 z"
           fill="#009ace"
           id="path186" />
        <path
           d="m 427.5,318 c -20.711,0 -37.527,16.789 -37.5,37.5 0.0171,12.987 6.8053,25.026 17.871,31.824 l 5.2305,3.248 5.5274,-9.5762 -5.293,-3.2949 c -7.6214,-4.8195 -12.31,-13.184 -12.336,-22.201 -0.0414,-14.635 11.864,-26.5 26.5,-26.5 12.142,0 22.354,8.1762 25.488,19.316 l 9.7227,-5.6133 c -5.2366,-14.399 -19.002,-24.703 -35.211,-24.703 z"
           fill="#da291c"
           id="path188" />
        <path
           d="m 548.73,468 -11.727,12 h 102 v -12 h -74.877 z"
           fill="#fedd00"
           stop-color="#000000"
           stroke-width="83.927"
           id="path190" />
        <path
           d="m 603,319.23 v 11.355 c 16.181,4.7499 28,19.698 28,37.416 -0.0223,10.021 -3.9012,19.649 -10.832,26.887 l -51.898,53.113 h 15.363 l 44.023,-45.127 c 9.1492,-9.3068 14.297,-21.822 14.344,-34.873 0,-23.833 -16.68,-43.758 -39,-48.771 z"
           fill="#009ace"
           stop-color="#000000"
           stroke-width="83.927"
           id="path192" />
        <path
           d="m 583,318.82 c -23.316,4.2407 -41,24.636 -41,49.176 8.2e-4,0.33633 0.0374,0.665 0.0449,1 h 11.004 c -0.009,-0.3351 -0.0481,-0.66301 -0.0488,-1 0,-18.44 12.802,-33.879 30,-37.943 z"
           fill="#da291c"
           stop-color="#000000"
           stroke-width="83.927"
           id="path194" />
        <path
           d="M 466,492 548,308"
           fill="none"
           stroke="#fedd00"
           stroke-width="10.5"
           id="path196" />
      </g>
    </g>
  </g>
  <g
     inkscape:groupmode="layer"
     id="layer3"
     inkscape:label="Image 3" />
</svg>
